<svg xmlns="http://www.w3.org/2000/svg" style="display: none;">
  <!-- logo icon -->
  <symbol id="icon-logo" viewBox="0 0 24 24">
    <!-- Monogram M merged with compounding growth trajectory -->
    <path d="M4 20V5l6 7 6-7v15" fill="none" stroke="currentColor" stroke-width="2.5" stroke-linecap="round" stroke-linejoin="round"/>
    <path d="M17 14l3-3 3 3" fill="none" stroke="currentColor" stroke-width="2.5" stroke-linecap="round" stroke-linejoin="round"/>
    <path d="M20 20V11" fill="none" stroke="currentColor" stroke-width="2.5" stroke-linecap="round" stroke-linejoin="round"/>
  </symbol>

  <!-- home icon -->
  <symbol id="icon-home" viewBox="0 0 24 24">
    <path d="M3 9l9-7 9 7v11a2 2 0 0 1-2 2H5a2 2 0 0 1-2-2z" fill="none" stroke="currentColor" stroke-width="2" stroke-linecap="round" stroke-linejoin="round"/>
    <polyline points="9 22 9 12 15 12 15 22" fill="none" stroke="currentColor" stroke-width="2" stroke-linecap="round" stroke-linejoin="round"/>
  </symbol>

  <!-- overview icon -->
  <symbol id="icon-overview" viewBox="0 0 24 24">
    <rect x="3" y="3" width="7" height="9" rx="1" fill="none" stroke="currentColor" stroke-width="2"/>
    <rect x="14" y="3" width="7" height="5" rx="1" fill="none" stroke="currentColor" stroke-width="2"/>
    <rect x="14" y="12" width="7" height="9" rx="1" fill="none" stroke="currentColor" stroke-width="2"/>
    <rect x="3" y="16" width="7" height="5" rx="1" fill="none" stroke="currentColor" stroke-width="2"/>
  </symbol>

  <!-- investments icon -->
  <symbol id="icon-investments" viewBox="0 0 24 24">
    <line x1="18" y1="20" x2="18" y2="10" stroke="currentColor" stroke-width="2" stroke-linecap="round"/>
    <line x1="12" y1="20" x2="12" y2="4" stroke="currentColor" stroke-width="2" stroke-linecap="round"/>
    <line x1="6" y1="20" x2="6" y2="14" stroke="currentColor" stroke-width="2" stroke-linecap="round"/>
  </symbol>

  <!-- accounts icon -->
  <symbol id="icon-accounts" viewBox="0 0 24 24">
    <rect x="3" y="4" width="18" height="16" rx="2" fill="none" stroke="currentColor" stroke-width="2"/>
    <line x1="3" y1="10" x2="21" y2="10" stroke="currentColor" stroke-width="2"/>
    <line x1="7" y1="15" x2="11" y2="15" stroke="currentColor" stroke-width="2" stroke-linecap="round"/>
  </symbol>

  <!-- performance icon -->
  <symbol id="icon-performance" viewBox="0 0 24 24">
    <polyline points="22 12 18 12 15 21 9 3 6 12 2 12" fill="none" stroke="currentColor" stroke-width="2" stroke-linecap="round" stroke-linejoin="round"/>
  </symbol>

  <!-- assets icon -->
  <symbol id="icon-assets" viewBox="0 0 24 24">
    <rect x="2" y="7" width="20" height="14" rx="2" fill="none" stroke="currentColor" stroke-width="2"/>
    <path d="M16 21V5a2 2 0 0 0-2-2h-4a2 2 0 0 0-2 2v16" fill="none" stroke="currentColor" stroke-width="2"/>
  </symbol>

  <!-- liabilities icon -->
  <symbol id="icon-liabilities" viewBox="0 0 24 24">
    <path d="M12 22a10 10 0 1 0 0-20 10 10 0 0 0 0 20zM12 6v6l4 2" fill="none" stroke="currentColor" stroke-width="2" stroke-linecap="round" stroke-linejoin="round"/>
  </symbol>

  <!-- goals icon -->
  <symbol id="icon-goals" viewBox="0 0 24 24">
    <circle cx="12" cy="12" r="10" fill="none" stroke="currentColor" stroke-width="2"/>
    <circle cx="12" cy="12" r="6" fill="none" stroke="currentColor" stroke-width="2"/>
    <circle cx="12" cy="12" r="2" fill="currentColor"/>
  </symbol>

  <!-- expenses icon -->
  <symbol id="icon-expenses" viewBox="0 0 24 24">
    <path d="M21 4H8a2 2 0 0 0-2 2v14a2 2 0 0 0 2 2h13M16 8H8M16 12H8M16 16H8" fill="none" stroke="currentColor" stroke-width="2" stroke-linecap="round" stroke-linejoin="round"/>
  </symbol>

  <!-- sun icon -->
  <symbol id="icon-sun" viewBox="0 0 24 24">
    <circle cx="12" cy="12" r="5" fill="none" stroke="currentColor" stroke-width="2"/>
    <path d="M12 1v2M12 21v2M4.22 4.22l1.42 1.42M18.36 18.36l1.42 1.42M1 12h2M21 12h2M4.22 19.78l1.42-1.42M18.36 5.64l1.42-1.42" stroke="currentColor" stroke-width="2" stroke-linecap="round"/>
  </symbol>

  <!-- moon icon -->
  <symbol id="icon-moon" viewBox="0 0 24 24">
    <path d="M21 12.79A9 9 0 1 1 11.21 3 7 7 0 0 0 21 12.79z" fill="none" stroke="currentColor" stroke-width="2" stroke-linecap="round" stroke-linejoin="round"/>
  </symbol>

  <!-- bell icon -->
  <symbol id="icon-bell" viewBox="0 0 24 24">
    <path d="M18 8A6 6 0 0 0 6 8c0 7-3 9-3 9h18s-3-2-3-9M13.73 21a2 2 0 0 1-3.46 0" fill="none" stroke="currentColor" stroke-width="2" stroke-linecap="round" stroke-linejoin="round"/>
  </symbol>

  <!-- search icon -->
  <symbol id="icon-search" viewBox="0 0 24 24">
    <circle cx="11" cy="11" r="8" fill="none" stroke="currentColor" stroke-width="2"/>
    <path d="M21 21l-4.35-4.35" stroke="currentColor" stroke-width="2" stroke-linecap="round"/>
  </symbol>

  <!-- calendar icon -->
  <symbol id="icon-calendar" viewBox="0 0 24 24">
    <rect x="3" y="4" width="18" height="18" rx="2" ry="2" fill="none" stroke="currentColor" stroke-width="2"/>
    <path d="M16 2v4M8 2v4M3 10h18" stroke="currentColor" stroke-width="2" stroke-linecap="round"/>
  </symbol>

  <!-- export icon -->
  <symbol id="icon-export" viewBox="0 0 24 24">
    <path d="M21 15v4a2 2 0 0 1-2 2H5a2 2 0 0 1-2-2v-4M17 8l-5-5-5 5M12 3v12" fill="none" stroke="currentColor" stroke-width="2" stroke-linecap="round" stroke-linejoin="round"/>
  </symbol>

  <!-- share icon -->
  <symbol id="icon-share" viewBox="0 0 24 24">
    <circle cx="18" cy="5" r="3" fill="none" stroke="currentColor" stroke-width="2"/>
    <circle cx="6" cy="12" r="3" fill="none" stroke="currentColor" stroke-width="2"/>
    <circle cx="18" cy="19" r="3" fill="none" stroke="currentColor" stroke-width="2"/>
    <path d="M8.59 13.51l6.83 3.98M15.41 6.51l-6.82 3.98" stroke="currentColor" stroke-width="2"/>
  </symbol>

  <!-- plus icon -->
  <symbol id="icon-plus" viewBox="0 0 24 24">
    <path d="M12 5v14M5 12h14" stroke="currentColor" stroke-width="2" stroke-linecap="round"/>
  </symbol>

  <!-- settings icon -->
  <symbol id="icon-settings" viewBox="0 0 24 24">
    <circle cx="12" cy="12" r="3" fill="none" stroke="currentColor" stroke-width="2"/>
    <path d="M19.4 15a1.65 1.65 0 0 0 .33 1.82l.06.06a2 2 0 1 1-2.83 2.83l-.06-.06a1.65 1.65 0 0 0-1.82-.33 1.65 1.65 0 0 0-1 1.51V21a2 2 0 0 1-4 0v-.09A1.65 1.65 0 0 0 9 19.4a1.65 1.65 0 0 0-1.82.33l-.06.06a2 2 0 1 1-2.83-2.83l.06-.06a1.65 1.65 0 0 0 .33-1.82 1.65 1.65 0 0 0-1.51-1H3a2 2 0 0 1 0-4h.09A1.65 1.65 0 0 0 4.6 9a1.65 1.65 0 0 0-.33-1.82l-.06-.06a2 2 0 1 1 2.83-2.83l.06.06a1.65 1.65 0 0 0 1.82.33H9a1.65 1.65 0 0 0 1-1.51V3a2 2 0 0 1 4 0v.09a1.65 1.65 0 0 0 1 1.51 1.65 1.65 0 0 0 1.82-.33l.06-.06a2 2 0 1 1 2.83 2.83l-.06.06a1.65 1.65 0 0 0-.33 1.82V9a1.65 1.65 0 0 0 1.51 1H21a2 2 0 0 1 0 4h-.09a1.65 1.65 0 0 0-1.51 1z" fill="none" stroke="currentColor" stroke-width="2"/>
  </symbol>

  <!-- dots icon -->
  <symbol id="icon-dots" viewBox="0 0 24 24">
    <circle cx="12" cy="12" r="1" fill="currentColor"/>
    <circle cx="19" cy="12" r="1" fill="currentColor"/>
    <circle cx="5" cy="12" r="1" fill="currentColor"/>
  </symbol>

  <!-- arrow-up-right icon -->
  <symbol id="icon-arrow-up-right" viewBox="0 0 24 24">
    <path d="M7 17L17 7M7 7h10v10" fill="none" stroke="currentColor" stroke-width="2" stroke-linecap="round" stroke-linejoin="round"/>
  </symbol>

  <!-- cashflow icon -->
  <symbol id="icon-cashflow" viewBox="0 0 24 24">
    <path d="M12 1v22M17 5H9.5a3.5 3.5 0 0 0 0 7h5a3.5 3.5 0 0 1 0 7H6" fill="none" stroke="currentColor" stroke-width="2" stroke-linecap="round" stroke-linejoin="round"/>
  </symbol>

  <!-- expenses icon -->
  <symbol id="icon-expenses" viewBox="0 0 24 24">
    <path d="M21 4H8a2 2 0 0 0-2 2v14a2 2 0 0 0 2 2h13M16 8H8M16 12H8M16 16H8" fill="none" stroke="currentColor" stroke-width="2" stroke-linecap="round" stroke-linejoin="round"/>
  </symbol>

  <!-- menu icon -->
  <symbol id="icon-menu" viewBox="0 0 24 24">
    <line x1="3" y1="12" x2="21" y2="12" stroke="currentColor" stroke-width="2" stroke-linecap="round"/>
    <line x1="3" y1="6" x2="21" y2="6" stroke="currentColor" stroke-width="2" stroke-linecap="round"/>
    <line x1="3" y1="18" x2="21" y2="18" stroke="currentColor" stroke-width="2" stroke-linecap="round"/>
  </symbol>

  <!-- close icon -->
  <symbol id="icon-close" viewBox="0 0 24 24">
    <line x1="18" y1="6" x2="6" y2="18" stroke="currentColor" stroke-width="2" stroke-linecap="round"/>
    <line x1="6" y1="6" x2="18" y2="18" stroke="currentColor" stroke-width="2" stroke-linecap="round"/>
  </symbol>

  <!-- logout icon -->
  <symbol id="icon-logout" viewBox="0 0 24 24">
    <path d="M9 21H5a2 2 0 0 1-2-2V5a2 2 0 0 1 2-2h4M16 17l5-5-5-5M21 12H9" fill="none" stroke="currentColor" stroke-width="2" stroke-linecap="round" stroke-linejoin="round"/>
  </symbol>
</svg>
